<svg xmlns="http://www.w3.org/2000/svg" viewBox="0 0 817.81 494.71"><defs><style>.cls-1,.cls-16,.cls-2,.cls-21,.cls-3,.cls-35,.cls-4,.cls-6{fill:none;}.cls-1,.cls-2{stroke:#1d2088;}.cls-1,.cls-13,.cls-14,.cls-16,.cls-2,.cls-21,.cls-3,.cls-31,.cls-35,.cls-4,.cls-6,.cls-7,.cls-9{stroke-miterlimit:10;}.cls-1{stroke-dasharray:12.07 12.07;}.cls-2{stroke-dasharray:11.99 11.99;}.cls-13,.cls-14,.cls-16,.cls-3,.cls-31,.cls-35,.cls-4,.cls-6,.cls-7,.cls-9{stroke:#231815;}.cls-3{stroke-dasharray:5.98 5.98;}.cls-4,.cls-7,.cls-9{stroke-width:0.75px;}.cls-5{font-size:10.86px;}.cls-10,.cls-11,.cls-17,.cls-28,.cls-32,.cls-33,.cls-5,.cls-8{fill:#231815;}.cls-10,.cls-11,.cls-28,.cls-32,.cls-33,.cls-5,.cls-8{font-family:TimesNewRomanPSMT, Times New Roman;}.cls-6{stroke-linecap:round;stroke-dasharray:0 2;}.cls-7{fill:#d9c29c;stroke-dasharray:6 0;}.cls-8{font-size:15px;}.cls-9{fill:#b8d5f0;}.cls-10{font-size:18.22px;}.cls-11,.cls-32,.cls-33{font-size:12px;}.cls-12{letter-spacing:-0.06em;}.cls-13{fill:#d9dbee;}.cls-14{fill:#fcd7a1;}.cls-15{fill:#87bbe5;}.cls-18{opacity:0.75;}.cls-19{fill:#487293;}.cls-20{fill:#98a5ba;}.cls-21{stroke:#3665b0;stroke-width:0.25px;}.cls-22{fill:#7f835d;}.cls-23{fill:#cccab9;}.cls-24{fill:#5f9a8e;}.cls-25{fill:#a7c1b9;}.cls-26{fill:#828f6a;}.cls-27{fill:#bfc6b2;}.cls-28{font-size:10px;}.cls-29{letter-spacing:-0.04em;}.cls-30{letter-spacing:-0.07em;}.cls-31{fill:#dcdddd;stroke-width:0.5px;}.cls-32{letter-spacing:-0.02em;}.cls-33{letter-spacing:-0.02em;}.cls-34{letter-spacing:-0.04em;}.cls-35{stroke-dasharray:2 2;}</style></defs><g id="图层_2" data-name="图层 2"><rect class="cls-1" x="250.28" y="21.94" width="398.33" height="176.71" rx="37.33"/><rect class="cls-2" x="250.28" y="204.93" width="398.33" height="185.34" rx="37.33"/><rect class="cls-3" x="196.99" y="222.08" width="46.37" height="109.36" rx="7.22" transform="translate(-18.4 -76.42) rotate(-0.42)"/></g><g id="图层_3" data-name="图层 3"><rect class="cls-4" x="214.65" y="228.77" width="14.21" height="15.81" rx="2.78" transform="translate(440.42 -64.87) rotate(89.58)"/><text class="cls-5" transform="translate(201.09 161.08) rotate(-0.42) scale(1 0.8)">T</text><text class="cls-5" transform="translate(207.74 163.92) rotate(-0.42) scale(0.58 0.47)">1</text><rect class="cls-4" x="214.79" y="248.67" width="14.21" height="15.81" rx="2.78" transform="translate(460.47 -45.26) rotate(89.58)"/><text class="cls-5" transform="translate(201.23 180.98) rotate(-0.42) scale(1 0.8)">T</text><text class="cls-5" transform="translate(207.89 183.82) rotate(-0.42) scale(0.58 0.47)">2</text><rect class="cls-4" x="214.48" y="269.81" width="14.21" height="15.81" rx="2.78" transform="translate(481.3 -23.96) rotate(89.58)"/><text class="cls-5" transform="translate(200.92 202.12) rotate(-0.42) scale(1 0.8)">T</text><text class="cls-5" transform="translate(207.58 204.97) rotate(-0.42) scale(0.58 0.47)">3</text><rect class="cls-4" x="214.69" y="298.32" width="14.21" height="15.81" rx="2.78" transform="translate(510.02 4.13) rotate(89.58)"/><text class="cls-5" transform="translate(201.13 230.64) rotate(-0.42) scale(1 0.8)">T</text><text class="cls-5" transform="translate(207.78 233.48) rotate(-0.42) scale(0.58 0.47)">n</text><line class="cls-6" x1="205.74" y1="207.23" x2="205.84" y2="220.3"/><rect class="cls-7" x="665.53" y="260.31" width="64.57" height="30.46" rx="5.46" transform="matrix(1, -0.01, 0.01, 1, -18.38, -72.9)"/><text class="cls-8" transform="matrix(1, -0.01, 0.01, 1, 532.73, 183.18)">Channel<tspan x="-20.02" y="10">Cross-Attetion</tspan></text><text class="cls-8" transform="matrix(1, -0.01, 0.01, 1, 538.04, 375.58)">Spatial<tspan x="-24.22" y="10">Cross-Attetion</tspan></text><rect class="cls-9" x="93.01" y="255.52" width="106.24" height="42.31" rx="4.44" transform="translate(405.35 50.46) rotate(89.58)"/><text class="cls-10" transform="matrix(0.01, 0.9, -1, 0.01, 125.59, 165.8)">Projection</text><text class="cls-11" transform="translate(652.42 200.96)">Sum fusion</text><text class="cls-8" transform="translate(352.31 423.62)">Parallel Cross<tspan class="cls-12" x="83.74" y="0"> </tspan><tspan x="86.66" y="0">Attention Module</tspan></text><text x="-16.36" y="-78.06"/></g><g id="图层_4" data-name="图层 4"><rect class="cls-13" x="312.62" y="125.43" width="21.02" height="31.67" rx="4.65" transform="translate(165.5 386.33) rotate(-90)"/><rect class="cls-14" x="281.9" y="199.06" width="82.6" height="26.25" rx="4.65" transform="translate(94.65 457.33) rotate(-90)"/><rect class="cls-9" x="350.34" y="233.19" width="35.75" height="16.17" rx="3.24" transform="translate(110.57 531.43) rotate(-90)"/><rect class="cls-9" x="350.34" y="182.96" width="35.75" height="16.17" rx="3.24" transform="translate(160.81 481.2) rotate(-90)"/><rect class="cls-9" x="350.65" y="136.96" width="35.75" height="16.17" rx="3.24" transform="translate(207.12 435.52) rotate(-90)"/><circle class="cls-15" cx="441.97" cy="136.79" r="8.56"/><line class="cls-16" x1="447.64" y1="143.18" x2="435.73" y2="130.94"/><line class="cls-16" x1="447.49" y1="130.25" x2="435.51" y2="142.38"/><circle class="cls-15" cx="495.28" cy="90.25" r="8.56"/><circle class="cls-15" cx="531.71" cy="90.25" r="8.56"/><line class="cls-16" x1="500.95" y1="96.65" x2="489.04" y2="84.41"/><line class="cls-16" x1="500.8" y1="83.72" x2="488.82" y2="95.85"/><line class="cls-16" x1="320.82" y1="163.22" x2="339.72" y2="163.22"/><path class="cls-17" d="M360.13,241.28a20.38,20.38,0,0,0-5.73,3.18l1.15-3.18-1.15-3.19A20.4,20.4,0,0,0,360.13,241.28Z" transform="translate(-16.36 -78.06)"/><line class="cls-16" x1="270.76" y1="162.99" x2="289.67" y2="162.99"/><path class="cls-17" d="M310.07,241a20.21,20.21,0,0,0-5.72,3.19L305.5,241l-1.15-3.18A20.18,20.18,0,0,0,310.07,241Z" transform="translate(-16.36 -78.06)"/><line class="cls-16" x1="270.76" y1="145.32" x2="289.67" y2="145.32"/><path class="cls-17" d="M310.07,223.38a20.18,20.18,0,0,0-5.72,3.18l1.15-3.18-1.15-3.19A20.21,20.21,0,0,0,310.07,223.38Z" transform="translate(-16.36 -78.06)"/><line class="cls-16" x1="271.6" y1="129.65" x2="290.5" y2="129.65"/><path class="cls-17" d="M310.91,207.71a20.1,20.1,0,0,0-5.73,3.18l1.15-3.18-1.15-3.19A20.13,20.13,0,0,0,310.91,207.71Z" transform="translate(-16.36 -78.06)"/><line class="cls-16" x1="270.76" y1="103.65" x2="289.67" y2="103.65"/><path class="cls-17" d="M310.07,181.71a20.18,20.18,0,0,0-5.72,3.18l1.15-3.18-1.15-3.19A20.21,20.21,0,0,0,310.07,181.71Z" transform="translate(-16.36 -78.06)"/><text class="cls-11" transform="matrix(0.01, 1, -1, 0.01, 303.03, 105.07)">Layer Norm</text><text class="cls-11" transform="translate(291.78 67.83)">concat</text><line class="cls-4" x1="306.96" y1="92.44" x2="306.96" y2="77.64"/><path class="cls-17" d="M323.32,152.57a15.92,15.92,0,0,0,2.46,4.43l-2.46-.89-2.46.89A15.43,15.43,0,0,0,323.32,152.57Z" transform="translate(-16.36 -78.06)"/><rect class="cls-13" x="312.08" y="401.56" width="21.02" height="31.67" rx="4.65" transform="translate(723.61 16.75) rotate(90)"/><rect class="cls-14" x="281.36" y="333.34" width="82.6" height="26.25" rx="4.65" transform="translate(652.76 -54.25) rotate(90)"/><line class="cls-16" x1="320.28" y1="268.32" x2="339.18" y2="268.32"/><path class="cls-17" d="M359.59,346.37a20.13,20.13,0,0,0-5.73,3.19l1.15-3.19-1.15-3.18A20.1,20.1,0,0,0,359.59,346.37Z" transform="translate(-16.36 -78.06)"/><line class="cls-16" x1="270.22" y1="239.55" x2="289.12" y2="239.55"/><path class="cls-17" d="M309.53,317.61a20.38,20.38,0,0,0-5.73,3.18l1.16-3.18-1.16-3.19A20.4,20.4,0,0,0,309.53,317.61Z" transform="translate(-16.36 -78.06)"/><line class="cls-16" x1="270.22" y1="257.22" x2="289.12" y2="257.22"/><path class="cls-17" d="M309.53,335.27a20.4,20.4,0,0,0-5.73,3.19l1.16-3.19-1.16-3.18A20.38,20.38,0,0,0,309.53,335.27Z" transform="translate(-16.36 -78.06)"/><line class="cls-16" x1="270.76" y1="276.37" x2="289.67" y2="276.37"/><path class="cls-17" d="M310.07,354.43a20.18,20.18,0,0,0-5.72,3.18l1.15-3.18-1.15-3.19A20.21,20.21,0,0,0,310.07,354.43Z" transform="translate(-16.36 -78.06)"/><line class="cls-16" x1="270.22" y1="298.89" x2="289.12" y2="298.89"/><path class="cls-17" d="M309.53,376.94a20.4,20.4,0,0,0-5.73,3.19l1.16-3.19-1.16-3.18A20.38,20.38,0,0,0,309.53,376.94Z" transform="translate(-16.36 -78.06)"/><text class="cls-11" transform="matrix(0.01, 1, -1, 0.01, 302.49, 238.3)">Layer Norm</text><text class="cls-11" transform="translate(290.39 342.65)">concat</text><line class="cls-4" x1="305.58" y1="309.87" x2="305.58" y2="325.63"/><path class="cls-17" d="M321.94,406.72a15.14,15.14,0,0,0-2.39-4.3l2.39.87,2.39-.87A15.39,15.39,0,0,0,321.94,406.72Z" transform="translate(-16.36 -78.06)"/><line class="cls-16" x1="523.15" y1="90.25" x2="540.26" y2="90.25"/><line class="cls-16" x1="531.71" y1="98.81" x2="531.71" y2="81.7"/><circle class="cls-15" cx="726.37" cy="198.65" r="8.56"/><line class="cls-16" x1="717.82" y1="198.65" x2="734.93" y2="198.65"/><line class="cls-16" x1="726.37" y1="207.21" x2="726.37" y2="190.1"/><rect class="cls-9" x="349.13" y="434.47" width="35.75" height="16.17" rx="3.24" transform="translate(-91.92 731.51) rotate(-90)"/><rect class="cls-9" x="349.13" y="384.24" width="35.75" height="16.17" rx="3.24" transform="translate(-41.68 681.27) rotate(-90)"/><rect class="cls-9" x="349.45" y="338.24" width="35.75" height="16.17" rx="3.24" transform="translate(4.64 635.59) rotate(-90)"/><rect class="cls-9" x="15.19" y="361.78" width="35.75" height="16.17" rx="3.24" transform="translate(-353.16 324.87) rotate(-90)"/><circle class="cls-15" cx="440.77" cy="338.07" r="8.56"/><line class="cls-16" x1="446.44" y1="344.47" x2="434.52" y2="332.23"/><line class="cls-16" x1="446.28" y1="331.53" x2="434.3" y2="343.67"/><circle class="cls-15" cx="494.07" cy="291.53" r="8.56"/><circle class="cls-15" cx="530.5" cy="291.53" r="8.56"/><line class="cls-16" x1="499.74" y1="297.93" x2="487.83" y2="285.69"/><line class="cls-16" x1="499.59" y1="285" x2="487.61" y2="297.13"/><line class="cls-16" x1="521.95" y1="291.53" x2="539.06" y2="291.53"/><line class="cls-16" x1="530.5" y1="300.09" x2="530.5" y2="282.98"/><g class="cls-18"><polygon class="cls-19" points="591 49.27 591 49.24 591.08 49.24 591.08 96.46 571.59 116.04 571.58 116.03 571.58 69.04 571.58 68.91 591 49.27"/><polygon class="cls-20" points="571.59 116.04 571.57 116.07 571.57 116.1 566.83 116.1 566.8 69.04 571.58 69.04 571.58 116.03 571.59 116.04"/><polygon class="cls-20" points="571.58 68.91 571.58 69.04 566.8 69.04 586.33 49.33 586.33 49.24 591 49.24 591 49.27 571.58 68.91"/><polyline class="cls-21" points="571.58 68.91 571.58 69.04 571.58 116.03"/><polyline class="cls-21" points="591.08 49.24 591.08 96.46 591.08 96.55"/><line class="cls-21" x1="566.8" y1="69.04" x2="566.83" y2="116.1"/><line class="cls-21" x1="571.58" y1="69.04" x2="566.8" y2="69.04"/><polyline class="cls-21" points="591.08 49.24 591 49.24 586.33 49.24 586.23 49.24"/><line class="cls-21" x1="571.57" y1="116.1" x2="566.83" y2="116.1"/><line class="cls-21" x1="586.33" y1="49.33" x2="566.8" y2="69.04"/><line class="cls-21" x1="591" y1="49.27" x2="571.58" y2="68.91"/><polyline class="cls-21" points="591.1 96.44 591.08 96.46 571.59 116.04 571.57 116.07"/></g><g class="cls-18"><polygon class="cls-19" points="603.71 60.66 603.71 95.95 589.14 110.6 589.12 110.59 589.12 75.35 603.65 60.66 603.71 60.66"/><polygon class="cls-20" points="603.71 60.64 603.71 60.66 603.65 60.66 589.12 75.35 589.04 75.34 582.57 75.4 597.17 60.65 597.17 60.59 603.71 60.59 603.71 60.64"/><polygon class="cls-20" points="589.12 75.35 589.12 110.59 582.59 110.59 582.57 75.4 589.04 75.34 589.12 75.35"/><line class="cls-21" x1="589.12" y1="75.35" x2="589.12" y2="110.59"/><polyline class="cls-21" points="603.71 60.64 603.71 60.66 603.71 95.95 603.71 96.02"/><line class="cls-21" x1="582.57" y1="75.4" x2="582.59" y2="110.59"/><line class="cls-21" x1="589.04" y1="75.34" x2="582.57" y2="75.4"/><polyline class="cls-21" points="603.71 60.59 597.17 60.59 597.1 60.59"/><line class="cls-21" x1="589.12" y1="110.59" x2="582.59" y2="110.59"/><line class="cls-21" x1="597.17" y1="60.65" x2="582.57" y2="75.4"/><line class="cls-21" x1="603.65" y1="60.66" x2="589.12" y2="75.35"/><polyline class="cls-21" points="603.72 95.94 603.71 95.95 589.14 110.6 589.12 110.63"/></g><g class="cls-18"><polygon class="cls-19" points="617.25 70.75 617.25 98.95 605.61 110.66 605.6 110.64 605.6 82.52 605.6 82.48 617.2 70.75 617.25 70.75"/><polygon class="cls-20" points="605.6 82.48 605.6 82.52 597.36 82.52 609.03 70.74 609.03 70.69 617.25 70.69 617.25 70.73 617.25 70.75 617.2 70.75 605.6 82.48"/><polygon class="cls-20" points="605.6 110.64 597.37 110.64 597.36 82.52 605.6 82.52 605.6 110.64"/><polyline class="cls-21" points="605.6 82.48 605.6 82.52 605.6 110.64"/><polyline class="cls-21" points="617.25 70.73 617.25 70.75 617.25 98.95 617.25 99"/><line class="cls-21" x1="597.36" y1="82.52" x2="597.37" y2="110.64"/><line class="cls-21" x1="605.6" y1="82.52" x2="597.36" y2="82.52"/><polyline class="cls-21" points="617.25 70.69 609.03 70.69 608.97 70.69"/><line class="cls-21" x1="605.6" y1="110.64" x2="597.37" y2="110.64"/><line class="cls-21" x1="609.03" y1="70.74" x2="597.36" y2="82.52"/><line class="cls-21" x1="617.2" y1="70.75" x2="605.6" y2="82.48"/><polyline class="cls-21" points="617.26 98.94 617.25 98.95 605.61 110.66 605.59 110.67"/></g><g class="cls-18"><polygon class="cls-19" points="635.36 76.05 635.36 99.28 625.77 108.92 625.76 108.91 625.76 85.75 625.76 85.72 635.32 76.05 635.36 76.05"/><polygon class="cls-20" points="625.76 85.72 625.76 85.75 613.98 85.75 623.59 76.05 623.59 76.01 635.36 76.01 635.36 76.04 635.36 76.05 635.32 76.05 625.76 85.72"/><polygon class="cls-20" points="613.99 108.91 613.98 85.75 625.76 85.75 625.76 108.91 613.99 108.91"/><polyline class="cls-21" points="625.76 85.72 625.76 85.75 625.76 108.91"/><polyline class="cls-21" points="635.36 76.04 635.36 76.05 635.36 99.28 635.36 99.32"/><line class="cls-21" x1="613.98" y1="85.75" x2="613.99" y2="108.91"/><line class="cls-21" x1="625.76" y1="85.75" x2="613.98" y2="85.75"/><polyline class="cls-21" points="635.36 76.01 623.59 76.01 623.53 76.01"/><line class="cls-21" x1="625.76" y1="108.91" x2="613.99" y2="108.91"/><line class="cls-21" x1="623.59" y1="76.05" x2="613.98" y2="85.75"/><line class="cls-21" x1="635.32" y1="76.05" x2="625.76" y2="85.72"/><polyline class="cls-21" points="635.37 99.27 635.36 99.28 625.77 108.92 625.75 108.93"/></g><g class="cls-18"><polygon class="cls-22" points="590.61 252.72 590.61 299.94 571.12 319.52 571.11 319.51 571.11 272.52 571.11 272.38 590.53 252.74 590.53 252.72 590.61 252.72"/><polygon class="cls-23" points="590.53 252.72 590.53 252.74 571.11 272.38 571.11 272.52 566.33 272.52 585.86 252.8 585.86 252.72 590.53 252.72"/><polygon class="cls-23" points="571.12 319.52 571.1 319.55 571.1 319.57 566.36 319.57 566.33 272.52 571.11 272.52 571.11 319.51 571.12 319.52"/><polyline class="cls-21" points="571.11 272.38 571.11 272.52 571.11 319.51"/><polyline class="cls-21" points="590.61 252.72 590.61 299.94 590.61 300.03"/><line class="cls-21" x1="566.33" y1="272.52" x2="566.36" y2="319.57"/><line class="cls-21" x1="571.11" y1="272.52" x2="566.33" y2="272.52"/><polyline class="cls-21" points="590.61 252.72 590.53 252.72 585.86 252.72 585.76 252.72"/><line class="cls-21" x1="571.1" y1="319.57" x2="566.36" y2="319.57"/><line class="cls-21" x1="585.86" y1="252.8" x2="566.33" y2="272.52"/><line class="cls-21" x1="590.53" y1="252.74" x2="571.11" y2="272.38"/><polyline class="cls-21" points="590.63 299.92 590.61 299.94 571.12 319.52 571.1 319.55"/></g><g class="cls-18"><polygon class="cls-22" points="603.24 264.14 603.24 299.43 588.67 314.08 588.65 314.07 588.65 278.82 603.18 264.14 603.24 264.14"/><polygon class="cls-23" points="603.24 264.12 603.24 264.14 603.18 264.14 588.65 278.82 588.57 278.82 582.1 278.88 596.7 264.13 596.7 264.07 603.24 264.07 603.24 264.12"/><polygon class="cls-23" points="588.65 278.82 588.65 314.07 582.12 314.07 582.1 278.88 588.57 278.82 588.65 278.82"/><line class="cls-21" x1="588.65" y1="278.83" x2="588.65" y2="314.07"/><polyline class="cls-21" points="603.24 264.12 603.24 264.14 603.24 299.43 603.24 299.5"/><line class="cls-21" x1="582.1" y1="278.87" x2="582.12" y2="314.07"/><line class="cls-21" x1="588.57" y1="278.82" x2="582.1" y2="278.87"/><polyline class="cls-21" points="603.24 264.07 596.7 264.07 596.63 264.07"/><line class="cls-21" x1="588.65" y1="314.07" x2="582.12" y2="314.07"/><line class="cls-21" x1="596.7" y1="264.13" x2="582.1" y2="278.87"/><line class="cls-21" x1="603.18" y1="264.14" x2="588.65" y2="278.83"/><polyline class="cls-21" points="603.25 299.42 603.24 299.43 588.67 314.08 588.65 314.1"/></g><g class="cls-18"><polygon class="cls-22" points="616.78 274.23 616.78 302.43 605.14 314.13 605.13 314.12 605.13 286 605.13 285.96 616.73 274.23 616.78 274.23"/><polygon class="cls-23" points="616.78 274.21 616.78 274.23 616.73 274.23 605.13 285.96 605.13 286 596.89 286 608.56 274.22 608.56 274.17 616.78 274.17 616.78 274.21"/><polygon class="cls-23" points="605.13 286 605.13 314.12 596.9 314.12 596.89 286 605.13 286"/><polyline class="cls-21" points="605.13 285.96 605.13 286 605.13 314.12"/><polyline class="cls-21" points="616.78 274.21 616.78 274.23 616.78 302.43 616.78 302.48"/><line class="cls-21" x1="596.89" y1="286" x2="596.9" y2="314.12"/><line class="cls-21" x1="605.13" y1="286" x2="596.89" y2="286"/><polyline class="cls-21" points="616.78 274.17 608.56 274.17 608.5 274.17"/><line class="cls-21" x1="605.13" y1="314.12" x2="596.9" y2="314.12"/><line class="cls-21" x1="608.56" y1="274.22" x2="596.89" y2="286"/><line class="cls-21" x1="616.73" y1="274.23" x2="605.13" y2="285.96"/><polyline class="cls-21" points="616.79 302.42 616.78 302.43 605.14 314.13 605.12 314.15"/></g><g class="cls-18"><polygon class="cls-22" points="634.89 279.53 634.89 302.76 625.3 312.39 625.29 312.39 625.29 289.23 625.29 289.19 634.85 279.53 634.89 279.53"/><polygon class="cls-23" points="634.89 279.52 634.89 279.53 634.85 279.53 625.29 289.19 625.29 289.23 613.51 289.23 623.12 279.53 623.12 279.48 634.89 279.48 634.89 279.52"/><polygon class="cls-23" points="625.29 289.23 625.29 312.39 613.52 312.39 613.51 289.23 625.29 289.23"/><polyline class="cls-21" points="625.29 289.19 625.29 289.23 625.29 312.39"/><polyline class="cls-21" points="634.89 279.52 634.89 279.53 634.89 302.76 634.89 302.8"/><line class="cls-21" x1="613.51" y1="289.23" x2="613.52" y2="312.39"/><line class="cls-21" x1="625.29" y1="289.23" x2="613.51" y2="289.23"/><polyline class="cls-21" points="634.89 279.48 623.12 279.48 623.07 279.48"/><line class="cls-21" x1="625.29" y1="312.39" x2="613.52" y2="312.39"/><line class="cls-21" x1="623.12" y1="279.53" x2="613.51" y2="289.23"/><line class="cls-21" x1="634.85" y1="279.53" x2="625.29" y2="289.2"/><polyline class="cls-21" points="634.9 302.75 634.89 302.76 625.3 312.39 625.29 312.41"/></g><g class="cls-18"><polygon class="cls-24" points="773.4 157.15 773.4 204.37 753.91 223.95 753.9 223.94 753.9 176.95 753.9 176.82 773.32 157.18 773.32 157.15 773.4 157.15"/><polygon class="cls-25" points="773.32 157.15 773.32 157.18 753.9 176.82 753.9 176.95 749.13 176.95 768.65 157.24 768.65 157.15 773.32 157.15"/><polygon class="cls-25" points="753.91 223.95 753.89 223.98 753.89 224.01 749.15 224.01 749.13 176.95 753.9 176.95 753.9 223.94 753.91 223.95"/><polyline class="cls-21" points="753.9 176.82 753.9 176.95 753.9 223.94"/><polyline class="cls-21" points="773.4 157.15 773.4 204.37 773.4 204.46"/><line class="cls-21" x1="749.12" y1="176.95" x2="749.15" y2="224.01"/><line class="cls-21" x1="753.9" y1="176.95" x2="749.12" y2="176.95"/><polyline class="cls-21" points="773.4 157.15 773.32 157.15 768.65 157.15 768.55 157.15"/><line class="cls-21" x1="753.89" y1="224.01" x2="749.15" y2="224.01"/><line class="cls-21" x1="768.65" y1="157.24" x2="749.12" y2="176.95"/><line class="cls-21" x1="773.32" y1="157.18" x2="753.9" y2="176.82"/><polyline class="cls-21" points="773.42 204.35 773.4 204.37 753.91 223.95 753.89 223.98"/></g><g class="cls-18"><polygon class="cls-24" points="786.03 168.57 786.03 203.87 771.46 218.51 771.45 218.5 771.45 183.26 785.97 168.57 786.03 168.57"/><polygon class="cls-25" points="786.03 168.55 786.03 168.57 785.97 168.57 771.45 183.26 771.36 183.25 764.89 183.31 779.5 168.56 779.5 168.5 786.03 168.5 786.03 168.55"/><polygon class="cls-25" points="771.45 183.26 771.45 218.5 764.91 218.5 764.89 183.31 771.36 183.25 771.45 183.26"/><line class="cls-21" x1="771.45" y1="183.26" x2="771.45" y2="218.5"/><polyline class="cls-21" points="786.03 168.55 786.03 168.57 786.03 203.87 786.03 203.93"/><line class="cls-21" x1="764.89" y1="183.31" x2="764.91" y2="218.5"/><line class="cls-21" x1="771.36" y1="183.25" x2="764.89" y2="183.31"/><polyline class="cls-21" points="786.03 168.5 779.5 168.5 779.42 168.5"/><line class="cls-21" x1="771.45" y1="218.5" x2="764.91" y2="218.5"/><line class="cls-21" x1="779.49" y1="168.56" x2="764.89" y2="183.31"/><line class="cls-21" x1="785.97" y1="168.57" x2="771.45" y2="183.26"/><polyline class="cls-21" points="786.04 203.86 786.03 203.87 771.46 218.51 771.44 218.54"/></g><g class="cls-18"><polygon class="cls-24" points="799.58 178.66 799.58 206.86 787.93 218.57 787.92 218.56 787.92 190.43 787.92 190.4 799.52 178.66 799.58 178.66"/><polygon class="cls-25" points="799.58 178.64 799.58 178.66 799.52 178.66 787.92 190.4 787.92 190.43 779.68 190.43 791.35 178.65 791.35 178.6 799.58 178.6 799.58 178.64"/><polygon class="cls-25" points="787.92 190.43 787.92 218.56 779.69 218.56 779.68 190.43 787.92 190.43"/><polyline class="cls-21" points="787.92 190.4 787.92 190.43 787.92 218.56"/><polyline class="cls-21" points="799.58 178.64 799.58 178.66 799.58 206.86 799.58 206.91"/><line class="cls-21" x1="779.68" y1="190.43" x2="779.69" y2="218.56"/><line class="cls-21" x1="787.92" y1="190.43" x2="779.68" y2="190.43"/><polyline class="cls-21" points="799.58 178.6 791.35 178.6 791.29 178.6"/><line class="cls-21" x1="787.92" y1="218.56" x2="779.69" y2="218.56"/><line class="cls-21" x1="791.35" y1="178.65" x2="779.68" y2="190.43"/><line class="cls-21" x1="799.52" y1="178.66" x2="787.92" y2="190.39"/><polyline class="cls-21" points="799.58 206.85 799.58 206.86 787.93 218.57 787.91 218.58"/></g><g class="cls-18"><polygon class="cls-24" points="817.68 183.97 817.68 207.19 808.09 216.83 808.08 216.82 808.08 193.66 808.08 193.63 817.64 183.97 817.68 183.97"/><polygon class="cls-25" points="817.68 183.95 817.68 183.97 817.64 183.97 808.08 193.63 808.08 193.66 796.3 193.66 805.91 183.96 805.91 183.92 817.68 183.92 817.68 183.95"/><polygon class="cls-25" points="808.08 193.66 808.08 216.82 796.31 216.82 796.3 193.66 808.08 193.66"/><polyline class="cls-21" points="808.08 193.63 808.08 193.66 808.08 216.82"/><polyline class="cls-21" points="817.68 183.95 817.68 183.97 817.68 207.19 817.68 207.23"/><line class="cls-21" x1="796.3" y1="193.66" x2="796.31" y2="216.82"/><line class="cls-21" x1="808.08" y1="193.66" x2="796.3" y2="193.66"/><polyline class="cls-21" points="817.68 183.92 805.91 183.92 805.86 183.92"/><line class="cls-21" x1="808.08" y1="216.82" x2="796.31" y2="216.82"/><line class="cls-21" x1="805.91" y1="183.96" x2="796.3" y2="193.66"/><line class="cls-21" x1="817.64" y1="183.97" x2="808.08" y2="193.63"/><polyline class="cls-21" points="817.69 207.18 817.68 207.19 808.09 216.83 808.08 216.84"/></g><line class="cls-16" x1="634.89" y1="96.02" x2="682.3" y2="96.02"/><line class="cls-16" x1="623.07" y1="275.62" x2="682.3" y2="275.62"/><g class="cls-18"><polygon class="cls-26" points="92.82 145.16 92.82 201.08 87.43 205.72 87.43 149.78 92.82 145.16"/><polygon class="cls-27" points="92.82 145.16 87.43 149.78 31.51 149.78 36.9 145.16 92.82 145.16"/><rect class="cls-27" x="31.51" y="149.78" width="55.92" height="55.94"/><rect class="cls-21" x="31.51" y="149.78" width="55.92" height="55.94"/><line class="cls-21" x1="36.9" y1="145.16" x2="31.51" y2="149.78"/><line class="cls-21" x1="92.82" y1="145.16" x2="87.43" y2="149.78"/><line class="cls-21" x1="92.82" y1="201.08" x2="87.43" y2="205.72"/><line class="cls-21" x1="36.9" y1="145.16" x2="92.82" y2="145.16"/><line class="cls-21" x1="92.82" y1="201.08" x2="92.82" y2="145.16"/></g><g class="cls-18"><polygon class="cls-26" points="74.22 164.44 74.22 215.44 69.31 219.67 69.31 168.65 74.22 164.44"/><polygon class="cls-27" points="74.22 164.44 69.31 168.65 18.31 168.65 23.22 164.44 74.22 164.44"/><rect class="cls-27" x="18.31" y="168.65" width="51" height="51.02"/><rect class="cls-21" x="18.31" y="168.65" width="51" height="51.02"/><line class="cls-21" x1="23.22" y1="164.44" x2="18.31" y2="168.65"/><line class="cls-21" x1="74.22" y1="164.44" x2="69.31" y2="168.65"/><line class="cls-21" x1="74.22" y1="215.44" x2="69.31" y2="219.67"/><line class="cls-21" x1="23.22" y1="164.44" x2="74.22" y2="164.44"/><line class="cls-21" x1="74.22" y1="215.44" x2="74.22" y2="164.44"/></g><g class="cls-18"><polygon class="cls-26" points="56.23 183.85 56.23 225.81 52.19 229.28 52.19 187.32 56.23 183.85"/><polygon class="cls-27" points="56.23 183.85 52.19 187.32 10.24 187.32 14.28 183.85 56.23 183.85"/><rect class="cls-27" x="10.24" y="187.32" width="41.95" height="41.97"/><rect class="cls-21" x="10.24" y="187.32" width="41.95" height="41.97"/><line class="cls-21" x1="14.28" y1="183.85" x2="10.24" y2="187.32"/><line class="cls-21" x1="56.23" y1="183.85" x2="52.19" y2="187.32"/><line class="cls-21" x1="56.23" y1="225.81" x2="52.19" y2="229.28"/><line class="cls-21" x1="14.28" y1="183.85" x2="56.23" y2="183.85"/><line class="cls-21" x1="56.23" y1="225.81" x2="56.23" y2="183.85"/></g><g class="cls-18"><polygon class="cls-26" points="36.48 205.71 36.48 238.87 33.28 241.62 33.28 208.45 36.48 205.71"/><polygon class="cls-27" points="36.48 205.71 33.28 208.45 0.13 208.45 3.32 205.71 36.48 205.71"/><rect class="cls-27" x="0.13" y="208.45" width="33.16" height="33.17"/><rect class="cls-21" x="0.13" y="208.45" width="33.16" height="33.17"/><line class="cls-21" x1="3.32" y1="205.71" x2="0.13" y2="208.45"/><line class="cls-21" x1="36.48" y1="205.71" x2="33.28" y2="208.45"/><line class="cls-21" x1="36.48" y1="238.87" x2="33.28" y2="241.62"/><line class="cls-21" x1="3.32" y1="205.71" x2="36.48" y2="205.71"/><line class="cls-21" x1="36.48" y1="238.87" x2="36.48" y2="205.71"/></g><text class="cls-28" transform="translate(37.19 292.61)">Projection</text><line class="cls-16" x1="682.3" y1="96.02" x2="682.3" y2="181.1"/><line class="cls-16" x1="682.3" y1="275.62" x2="682.3" y2="212.72"/></g><g id="图层_5" data-name="图层 5"><line class="cls-16" x1="91.19" y1="177.75" x2="101.43" y2="177.75"/><path class="cls-17" d="M123.83,255.8a30.15,30.15,0,0,0-8.54,4.76L117,255.8l-1.72-4.75A30.12,30.12,0,0,0,123.83,255.8Z" transform="translate(-16.36 -78.06)"/><line class="cls-16" x1="149.69" y1="198.97" x2="174.59" y2="198.97"/><path class="cls-17" d="M197,277a30.45,30.45,0,0,0-8.55,4.76l1.72-4.76-1.72-4.75A30.18,30.18,0,0,0,197,277Z" transform="translate(-16.36 -78.06)"/><line class="cls-16" x1="71.96" y1="193" x2="101.43" y2="193"/><path class="cls-17" d="M123.83,271.05a30.15,30.15,0,0,0-8.54,4.76l1.72-4.76-1.72-4.75A30.12,30.12,0,0,0,123.83,271.05Z" transform="translate(-16.36 -78.06)"/><line class="cls-16" x1="54.21" y1="210.96" x2="102.85" y2="210.96"/><path class="cls-17" d="M125.25,289a30.34,30.34,0,0,0-8.55,4.76l1.72-4.76-1.72-4.75A30.31,30.31,0,0,0,125.25,289Z" transform="translate(-16.36 -78.06)"/><line class="cls-16" x1="35.26" y1="226.74" x2="102.97" y2="227.38"/><path class="cls-17" d="M125.37,305.49a30.11,30.11,0,0,0-8.59,4.68l1.77-4.74-1.68-4.77A30.35,30.35,0,0,0,125.37,305.49Z" transform="translate(-16.36 -78.06)"/><line class="cls-16" x1="360.93" y1="163.65" x2="406.26" y2="163.65"/><line class="cls-16" x1="503.84" y1="90.25" x2="523.15" y2="90.25"/><line class="cls-16" x1="360.93" y1="113.99" x2="406.26" y2="113.99"/><line class="cls-16" x1="360.93" y1="66.99" x2="405.58" y2="66.99"/><line class="cls-16" x1="422.6" y1="162.65" x2="441.97" y2="162.65"/><line class="cls-16" x1="441.97" y1="162.65" x2="441.97" y2="145.35"/><line class="cls-16" x1="420.76" y1="112.99" x2="441.97" y2="112.99"/><line class="cls-16" x1="441.97" y1="128.23" x2="441.97" y2="112.99"/><line class="cls-16" x1="421.76" y1="66.99" x2="494.81" y2="66.99"/><line class="cls-16" x1="495.28" y1="81.7" x2="495.28" y2="66.99"/><line class="cls-16" x1="450.53" y1="136.79" x2="495.28" y2="136.79"/><line class="cls-16" x1="495.28" y1="98.81" x2="495.28" y2="137.06"/><line class="cls-16" x1="276.93" y1="101.86" x2="276.93" y2="36.99"/><line class="cls-16" x1="531.71" y1="36.99" x2="276.93" y2="36.99"/><line class="cls-16" x1="531.71" y1="77.11" x2="531.71" y2="37.99"/><path class="cls-17" d="M548.07,159.75a22.84,22.84,0,0,1,3.62-6.49l-3.62,1.3-3.61-1.3A22.81,22.81,0,0,1,548.07,159.75Z" transform="translate(-16.36 -78.06)"/><line class="cls-16" x1="540.26" y1="90.25" x2="560.85" y2="90.25"/><path class="cls-17" d="M581.74,168.31a22.87,22.87,0,0,0-6.41,3.56l1.29-3.56-1.29-3.57A22.65,22.65,0,0,0,581.74,168.31Z" transform="translate(-16.36 -78.06)"/><line class="cls-16" x1="359.72" y1="364.93" x2="405.06" y2="364.93"/><line class="cls-16" x1="502.63" y1="291.53" x2="521.95" y2="291.53"/><line class="cls-16" x1="359.72" y1="315.27" x2="405.06" y2="315.27"/><line class="cls-16" x1="359.72" y1="268.27" x2="404.38" y2="268.27"/><line class="cls-16" x1="421.39" y1="363.93" x2="440.77" y2="363.93"/><line class="cls-16" x1="440.77" y1="363.93" x2="440.77" y2="346.63"/><line class="cls-16" x1="419.56" y1="314.27" x2="440.77" y2="314.27"/><line class="cls-16" x1="440.77" y1="329.52" x2="440.77" y2="314.27"/><line class="cls-16" x1="420.56" y1="268.27" x2="493.6" y2="268.27"/><line class="cls-16" x1="494.07" y1="282.98" x2="494.07" y2="268.27"/><line class="cls-16" x1="449.32" y1="338.07" x2="494.07" y2="338.07"/><line class="cls-16" x1="494.07" y1="300.09" x2="494.07" y2="338.35"/><line class="cls-16" x1="280.72" y1="239.16" x2="280.72" y2="216.16"/><line class="cls-16" x1="530.5" y1="216.16" x2="280.72" y2="216.16"/><line class="cls-16" x1="530.5" y1="278.28" x2="530.5" y2="216.16"/><path class="cls-17" d="M546.87,360.92a22.81,22.81,0,0,1,3.61-6.49l-3.61,1.3-3.62-1.3A22.84,22.84,0,0,1,546.87,360.92Z" transform="translate(-16.36 -78.06)"/><line class="cls-16" x1="539.06" y1="291.53" x2="559.64" y2="291.53"/><path class="cls-17" d="M580.53,369.59a22.65,22.65,0,0,0-6.41,3.57l1.29-3.57L574.12,366A22.65,22.65,0,0,0,580.53,369.59Z" transform="translate(-16.36 -78.06)"/><line class="cls-16" x1="713.74" y1="198.62" x2="744.62" y2="198.62"/><path class="cls-17" d="M765.51,276.68a22.87,22.87,0,0,0-6.41,3.56l1.29-3.56-1.29-3.57A22.65,22.65,0,0,0,765.51,276.68Z" transform="translate(-16.36 -78.06)"/><line class="cls-16" x1="322.94" y1="62.47" x2="343.76" y2="62.47"/><line class="cls-16" x1="343.33" y1="113.99" x2="333.49" y2="113.99"/><line class="cls-16" x1="332.85" y1="62.47" x2="332.85" y2="113.99"/><line class="cls-16" x1="227" y1="199.66" x2="247.9" y2="150.89"/><path class="cls-17" d="M266.64,223.4a30.22,30.22,0,0,0,1,9.73L264,229.68l-5-.3A29.79,29.79,0,0,0,266.64,223.4Z" transform="translate(-16.36 -78.06)"/><line class="cls-16" x1="248.02" y1="251.62" x2="227" y2="199.66"/><path class="cls-17" d="M266.64,335.27a30.34,30.34,0,0,1,1.21-9.7L264.08,329l-5.05.18A30.22,30.22,0,0,1,266.64,335.27Z" transform="translate(-16.36 -78.06)"/><text class="cls-11" transform="translate(340.67 94.27)">P×C</text><text class="cls-28" transform="translate(362.11 97.6) scale(0.58)">C</text><text class="cls-11" transform="translate(340.02 343.95)">P×C</text><text class="cls-28" transform="translate(361.46 347.28) scale(0.58)">C</text><text class="cls-11" transform="translate(340.21 191.07)">P×C</text><text class="cls-28" transform="translate(361.65 194.4) scale(0.58)">i</text><text class="cls-11" transform="translate(340.02 248.7)">P×C</text><text class="cls-28" transform="translate(361.46 252.03) scale(0.58)">i</text><text class="cls-11" transform="translate(268.92 114.29)">P×C</text><text class="cls-28" transform="translate(290.37 117.62) scale(0.58)">1</text><text class="cls-11" transform="translate(268.13 140.11)">P×C</text><text class="cls-28" transform="translate(289.58 143.44) scale(0.58)">2</text><text class="cls-11" transform="translate(268.13 155.29)">P×C</text><text class="cls-28" transform="translate(289.58 158.62) scale(0.58)">3</text><text class="cls-11" transform="translate(268.13 173.74)">P×C</text><text class="cls-28" transform="translate(289.58 177.07) scale(0.58)">4</text><text class="cls-11" transform="translate(268.53 249.86)">P×C</text><text class="cls-28" transform="translate(289.97 253.19) scale(0.58)">1</text><text class="cls-11" transform="translate(268.13 269.57)">P×C</text><text class="cls-28" transform="translate(289.58 272.9) scale(0.58)">2</text><text class="cls-11" transform="translate(267.74 290.86)">P×C</text><text class="cls-28" transform="translate(289.18 294.19) scale(0.58)">3</text><text class="cls-11" transform="translate(267.74 309.31)">P×C</text><text class="cls-28" transform="translate(289.18 312.64) scale(0.58)">4</text><text class="cls-28" transform="translate(532.57 105.57)">Reshape</text><text class="cls-28" transform="translate(530.5 309.05)">Reshape</text><text class="cls-28" transform="translate(365.8 160.26)">Reshape</text><text class="cls-28" transform="translate(365.1 173.14)"><tspan class="cls-29">T</tspan><tspan x="5.76" y="0">ranspose</tspan></text><text class="cls-28" transform="translate(363.82 264.37)">Reshape</text><text class="cls-28" transform="translate(363.12 277.26)"><tspan class="cls-29">T</tspan><tspan x="5.76" y="0">ranspose</tspan></text><text class="cls-28" transform="translate(363.16 311.47)">Reshape</text><text class="cls-28" transform="translate(362.46 324.35)"><tspan class="cls-29">T</tspan><tspan x="5.76" y="0">ranspose</tspan></text><text class="cls-28" transform="translate(362.81 362.32)">Reshape</text><text class="cls-28" transform="translate(362.11 375.2)"><tspan class="cls-29">T</tspan><tspan x="5.76" y="0">ranspose</tspan></text><text class="cls-28" transform="translate(366.15 110.49)">Reshape</text><text class="cls-28" transform="translate(365.45 123.37)"><tspan class="cls-29">T</tspan><tspan x="5.76" y="0">ranspose</tspan></text><text class="cls-28" transform="translate(365.8 63.36)">Reshape</text><text class="cls-28" transform="translate(365.1 76.24)"><tspan class="cls-29">T</tspan><tspan x="5.76" y="0">ranspose</tspan></text><text class="cls-11" transform="translate(122.62 295.95)">C</text><text class="cls-28" transform="translate(130.62 299.28) scale(0.58)">i</text><text class="cls-28" transform="translate(132.24 295.95)">:</text><text class="cls-28" transform="translate(140.3 290.7)">Number of channels at i</text><text class="cls-28" transform="translate(236.38 287.37) scale(0.58)"><tspan xml:space="preserve">th  </tspan></text><text class="cls-28" transform="translate(140.3 302.7)">encoder stage</text><text class="cls-11" transform="translate(12.25 339.33)">P:</text><text class="cls-28" transform="translate(37.81 338.49)">Number of patches</text><text class="cls-28" transform="translate(33.26 411.15)">Number of heads for <tspan x="0" y="12">Spatial Cross</tspan><tspan class="cls-12" x="53.06" y="12"> </tspan><tspan x="55" y="12">Attention</tspan></text><text class="cls-28" transform="translate(140.44 410.82)">Number of heads for <tspan x="0" y="12">Channel Cross</tspan><tspan class="cls-12" x="58.61" y="12"> </tspan><tspan x="60.56" y="12">Attention</tspan></text><text class="cls-28" transform="translate(140.3 365.98)">Number of channels per <tspan x="0" y="12">head at i</tspan></text><text class="cls-28" transform="translate(174.17 374.65) scale(0.58)">th</text><text class="cls-28" transform="translate(178.71 377.98)"><tspan xml:space="preserve"> encoder stage</tspan></text><text class="cls-11" transform="translate(122.18 337.6)">C</text><text class="cls-28" transform="translate(130.18 340.93) scale(0.58)">C</text><text class="cls-28" transform="translate(134.07 337.6)">:</text><text class="cls-28" transform="translate(140.14 331.03)"><tspan class="cls-30">T</tspan><tspan x="5.41" y="0">otal number of </tspan><tspan x="0" y="12">channels</tspan></text><text class="cls-28" transform="translate(36.46 370.09)"><tspan class="cls-30">T</tspan><tspan x="5.41" y="0">otal number of </tspan><tspan x="0" y="12">channels per head</tspan></text><line class="cls-16" x1="98.14" y1="177.07" x2="98.14" y2="0.5"/><line class="cls-16" x1="726.37" y1="0.5" x2="98.14" y2="0.5"/><line class="cls-16" x1="726.37" y1="190.54" x2="726.37" y2="0.5"/></g><g id="图层_6" data-name="图层 6"><rect class="cls-31" x="421.96" y="233.71" width="17.33" height="14" rx="2.33" transform="translate(173.56 593.28) rotate(-90)"/><rect class="cls-31" x="420.96" y="184.04" width="17.33" height="14" rx="2.33" transform="translate(222.22 542.62) rotate(-90)"/><rect class="cls-31" x="420.96" y="138.04" width="17.33" height="14" rx="2.33" transform="translate(268.22 496.62) rotate(-90)"/><text class="cls-11" transform="translate(409.38 166.5)">Q</text><text class="cls-32" transform="translate(408.67 72.67)">V</text><text class="cls-11" transform="translate(407.26 118.1)">K</text><text class="cls-33" transform="translate(415.93 114.1) scale(0.58)">T</text><rect class="cls-31" x="420.76" y="434.99" width="17.33" height="14" rx="2.33" transform="translate(-28.93 793.36) rotate(-90)"/><rect class="cls-31" x="419.76" y="385.32" width="17.33" height="14" rx="2.33" transform="translate(19.74 742.69) rotate(-90)"/><rect class="cls-31" x="419.76" y="339.32" width="17.33" height="14" rx="2.33" transform="translate(65.74 696.69) rotate(-90)"/><text class="cls-11" transform="translate(408.67 368.33)">Q</text><text class="cls-32" transform="translate(408.17 273.57)">V</text><text class="cls-11" transform="translate(406.06 319.38)">K</text><text class="cls-33" transform="translate(414.72 315.38) scale(0.58)">T</text><line class="cls-16" x1="321.56" y1="337.69" x2="331.75" y2="337.69"/><line class="cls-16" x1="343.22" y1="314.27" x2="331.75" y2="314.27"/><line class="cls-16" x1="331.75" y1="337.69" x2="331.75" y2="314.27"/><line class="cls-16" x1="341.94" y1="364.93" x2="331.75" y2="364.93"/><line class="cls-16" x1="331.75" y1="337.69" x2="331.75" y2="364.93"/><text class="cls-28" transform="translate(423.86 172.07)">h</text><text class="cls-28" transform="translate(428.86 175.4) scale(0.58)">c</text><text class="cls-28" transform="translate(431.45 172.07)">×C</text><text class="cls-28" transform="translate(443.76 175.4) scale(0.58)">ih</text><text class="cls-28" transform="translate(448.29 172.07)">×<tspan class="cls-34" x="5.64" y="0">P</tspan></text><text class="cls-28" transform="translate(421.3 108.58)">h</text><text class="cls-28" transform="translate(426.3 111.91) scale(0.58)">c</text><text class="cls-28" transform="translate(428.89 108.58)">×P×C</text><text class="cls-28" transform="translate(452.4 111.91) scale(0.58)">Ch</text><text class="cls-28" transform="translate(420.1 263.86)">h</text><text class="cls-28" transform="translate(425.1 267.19) scale(0.58)">s</text><text class="cls-28" transform="translate(427.37 263.86)">×P×C</text><text class="cls-28" transform="translate(450.88 267.19) scale(0.58)">ih</text><text class="cls-28" transform="translate(421.54 374.43)">h</text><text class="cls-28" transform="translate(426.54 377.76) scale(0.58)">s</text><text class="cls-28" transform="translate(428.81 374.43)">×P×C</text><text class="cls-28" transform="translate(452.32 377.76) scale(0.58)">Ch</text><text class="cls-28" transform="translate(421.3 63.5)">h</text><text class="cls-28" transform="translate(426.3 66.83) scale(0.58)">c</text><text class="cls-28" transform="translate(428.89 63.5)">×C</text><text class="cls-28" transform="translate(441.2 66.83) scale(0.58)">Ch</text><text class="cls-28" transform="translate(448.01 63.5)">×<tspan class="cls-34" x="5.64" y="0">P</tspan></text><text class="cls-28" transform="translate(420.1 309.18)">h</text><text class="cls-28" transform="translate(425.1 312.51) scale(0.58)">s</text><text class="cls-28" transform="translate(427.37 309.18)">×C</text><text class="cls-28" transform="translate(439.68 312.51) scale(0.58)">Ch</text><text class="cls-28" transform="translate(446.48 309.18)">×<tspan class="cls-34" x="5.64" y="0">P</tspan></text><text class="cls-28" transform="translate(454.75 134.59)">Softmax</text><text class="cls-28" transform="translate(454.75 336.05)">Softmax</text><text class="cls-28" transform="translate(10.23 375.2)">C</text><text class="cls-28" transform="translate(16.9 378.53) scale(0.58)">Ch</text><text class="cls-28" transform="translate(23.7 375.2)">:</text><text class="cls-28" transform="translate(123.06 372.01)">C</text><text class="cls-28" transform="translate(129.73 375.34) scale(0.58)">ih</text><text class="cls-28" transform="translate(134.27 372.01)">:</text><text class="cls-28" transform="translate(12.52 410.79)">h</text><text class="cls-28" transform="translate(17.52 414.12) scale(0.58)">s</text><text class="cls-28" transform="translate(19.79 410.79)">:</text><text class="cls-28" transform="translate(125.98 413.17)">h</text><text class="cls-28" transform="translate(130.98 416.5) scale(0.58)">c</text><text class="cls-28" transform="translate(133.57 413.17)">:</text><rect class="cls-35" x="3.32" y="261.44" width="242.76" height="179.51" rx="21.41"/></g></svg>